<svg width="85" height="30" viewBox="0 0 85 30" fill="none" xmlns="http://www.w3.org/2000/svg">
<g clip-path="url(#clip0)">
<path d="M37.3828 0C40.0781 0.898438 42.3242 1.50391 44.1211 1.81641C45.918 2.12891 47.5781 2.28516 49.1016 2.28516C49.9609 2.28516 50.6055 2.28516 51.0352 2.28516C51.5039 2.2461 51.9531 2.1875 52.3828 2.10938C52.3047 2.30469 52.2461 2.51953 52.207 2.75391C52.207 2.94922 52.1875 3.14453 52.1484 3.33984L54.7266 1.17187H58.2422L51.7969 6.67969C51.7578 7.34375 51.7187 8.04687 51.6797 8.78906C51.6797 9.53125 51.6797 10.293 51.6797 11.0742C51.6797 15.293 52.0312 19.3945 52.7344 23.3789C51.7578 23.4961 50.7227 23.75 49.6289 24.1406C48.5352 24.5312 47.4414 25.0195 46.3477 25.6055C45.2539 26.1914 44.1992 26.875 43.1836 27.6562C42.168 28.3984 41.25 29.1797 40.4297 30C40 29.6484 39.2773 29.2969 38.2617 28.9453C37.2461 28.5938 36.1133 28.2813 34.8633 28.0078C33.6523 27.6953 32.4219 27.4414 31.1719 27.2461C29.9609 27.0117 28.9453 26.875 28.125 26.8359L25.6641 28.9453H22.1484L27.7734 24.1406C28.0469 22.8906 28.1836 21.0938 28.1836 18.75C28.1836 17.6172 28.1445 16.3867 28.0664 15.0586C27.9883 13.6914 27.8711 12.4023 27.7148 11.1914C27.5977 9.98047 27.4609 8.94531 27.3047 8.08594C27.1484 7.22656 26.9922 6.69922 26.8359 6.50391C28.3594 6.23047 30.0586 5.52735 31.9336 4.39453C33.8086 3.22266 35.625 1.75781 37.3828 0ZM35.7422 14.2969C35.7422 14.7656 35.7422 15.2734 35.7422 15.8203C35.7422 16.3281 35.7227 16.8555 35.6836 17.4023L44.4141 9.96094V7.44141C42.6172 7.28516 40.8594 7.03125 39.1406 6.67969C37.4219 6.28906 36.1133 5.85938 35.2148 5.39063C35.4102 7.03125 35.5469 8.57422 35.625 10.0195C35.7031 11.4258 35.7422 12.8516 35.7422 14.2969ZM44.3555 13.0078L35.5664 20.5078L35.4492 22.3242C36.7773 22.4805 38.2422 22.6953 39.8437 22.9687C41.4453 23.2422 42.9297 23.5937 44.2969 24.0234L44.3555 13.0078Z" fill="black"/>
<path d="M9.78516 10.4492C10.6836 9.00391 11.5234 7.48047 12.3047 5.8789C13.0859 4.27734 13.8086 2.57813 14.4727 0.78125C15.2148 1.25 16.2695 1.73828 17.6367 2.24609C19.0039 2.71484 20.5078 3.14453 22.1484 3.53516C21.9531 5.17578 21.6016 6.67969 21.0938 8.04687C20.5859 9.375 19.9414 10.4883 19.1602 11.3867L15.2344 9.33594H14.5313L9.78516 16.0156V24.1016C9.78516 25.4688 10.0195 26.4648 10.4883 27.0898C10.9961 27.6758 11.875 28.0664 13.125 28.2617V29.2578H0.585938V28.3789C1.64063 27.9883 2.16797 26.7383 2.16797 24.6289V4.17969L0 3.24219V2.59766C1.36719 2.40234 2.85156 2.14844 4.45313 1.83594C6.05469 1.48437 7.48047 1.15234 8.73047 0.839844L9.78516 2.59766V10.4492Z" fill="black"/>
<path d="M71.7969 30C70.6641 29.1797 69.2578 28.3984 67.5781 27.6562C65.8984 26.9141 64.1602 26.3281 62.3633 25.8984C62.4023 25.4297 62.4414 24.9023 62.4805 24.3164C62.5195 23.6914 62.5391 23.0664 62.5391 22.4414C62.5781 21.7773 62.5977 21.1523 62.5977 20.5664C62.6367 19.9414 62.6563 19.4141 62.6563 18.9844C62.6563 15.4297 62.3828 12.4414 61.8359 10.0195C61.3281 7.59766 60.6836 5.74219 59.9023 4.45313L58.2031 4.10156V3.10547C58.8672 3.02735 59.668 2.89063 60.6055 2.69531C61.543 2.46094 62.4609 2.20703 63.3594 1.9336C64.2969 1.6211 65.1562 1.30859 65.9375 0.996095C66.7187 0.644532 67.3047 0.312501 67.6953 0C68.6328 1.36719 69.2773 3.61328 69.6289 6.73828C70.0195 9.86328 70.2148 13.5352 70.2148 17.7539C70.2148 18.5742 70.2148 19.4141 70.2148 20.2734C70.2148 21.0937 70.1953 21.9531 70.1562 22.8516L73.0859 24.4336H73.4375C73.9844 23.4961 74.4531 22.3242 74.8437 20.918C75.2734 19.4727 75.625 17.9688 75.8984 16.4063C76.2109 14.8438 76.4453 13.3203 76.6016 11.8359C76.7578 10.3125 76.8359 8.98438 76.8359 7.85156C76.8359 6.28906 76.6602 5.11719 76.3086 4.33594C75.9961 3.55469 75.5078 3.00781 74.8437 2.69531L74.9023 1.75781C76.4258 1.64063 77.9687 1.44531 79.5312 1.17187C81.0938 0.859374 82.6367 0.46875 84.1602 0C84.082 0.117187 84.043 0.253907 84.043 0.410157C84.043 0.566408 84.043 0.742188 84.043 0.937501C84.043 2.1875 84.1211 3.37891 84.2773 4.51172C84.4336 5.60547 84.7852 6.44531 85.332 7.03125L79.6484 24.375L72.3828 30H71.7969Z" fill="black"/>
</g>
<defs>
<clipPath id="clip0">
<rect width="85" height="30" fill="white"/>
</clipPath>
</defs>
</svg>
